<svg xmlns="http://www.w3.org/2000/svg" width="40" height="40" viewBox="0 0 40 40" fill="none"><g clip-path="url(#clip0_438_1427)"><path d="M20.0002 0C12.4113 0 6.24463 6.16667 6.24463 13.7556C6.24463 21.3444 12.4113 27.5 20.0002 27.5C27.578 27.5 33.7557 21.3333 33.7557 13.7444C33.7557 6.15556 27.578 0 20.0002 0ZM27.2224 11.8L24.8446 14.7778L25.1002 18.6667C25.1335 19.1 24.9335 19.5111 24.578 19.7667C24.3669 19.9222 24.1113 20 23.8669 20C23.7002 20 23.5335 19.9667 23.378 19.9L20.0002 18.4667L16.6224 19.9C16.2224 20.0667 15.7669 20.0222 15.4113 19.7667C15.0557 19.5111 14.8557 19.1 14.8891 18.6667L15.1446 14.7778L12.7669 11.8C12.5002 11.4667 12.4224 11.0222 12.5557 10.6222C12.6891 10.2222 13.0113 9.91111 13.4224 9.81111L16.978 8.88889L18.9224 5.61111C19.3669 4.85556 20.6224 4.85556 21.0669 5.61111L23.0113 8.88889L26.5557 9.81111C26.9669 9.92222 27.2891 10.2222 27.4224 10.6222C27.5557 11.0222 27.4891 11.4778 27.2224 11.8Z" fill="#FF684C"></path><path d="M5.93355 21.8555L0.166879 31.8777C-0.0886762 32.3221 -0.0442318 32.8666 0.255768 33.2666C0.555768 33.6666 1.07799 33.8444 1.56688 33.711L8.91133 31.7332L10.8669 39.0777C11.0002 39.5666 11.4113 39.9221 11.9113 39.9999C11.9669 39.9999 12.0224 40.011 12.078 40.011C12.5224 40.011 12.9335 39.7777 13.1558 39.3888L18.6113 29.9444C13.1891 29.4666 8.53355 26.3332 5.93355 21.8555Z" fill="#FF684C"></path><path d="M39.8335 31.8777L34.0557 21.8555C31.4668 26.3332 26.8002 29.4666 21.3779 29.9332L26.8335 39.3777C27.0557 39.7666 27.4779 39.9999 27.9113 39.9999C27.9668 39.9999 28.0224 39.9999 28.0779 39.9888C28.5779 39.9221 28.989 39.5555 29.1224 39.0666L31.0779 31.7221L38.4224 33.6999C38.9113 33.8332 39.4224 33.6555 39.7335 33.2555C40.0446 32.8666 40.089 32.311 39.8335 31.8777Z" fill="#FF684C"></path></g><defs><clipPath id="clip0_438_1427"><rect width="40" height="40" fill="white"></rect></clipPath></defs></svg>