<svg xmlns="http://www.w3.org/2000/svg" width="32" height="40" viewBox="0 0 32 40" fill="none"><path d="M3.89368 28.9111C4.16499 28.6444 4.4583 28.437 4.75894 28.2815C4.87626 28.0148 5.07424 27.7926 5.31622 27.6518C5.33089 26.5852 5.49221 25.6666 5.79285 24.9037C2.3538 26.6666 0 30.2666 0 34.4222C0 39.7407 3.84235 40 8.87259 40C9.42255 40 9.98717 40 10.5591 40H21.4335C22.0055 40 22.5701 40 23.1201 40C28.1503 40 32 39.7407 32 34.4222C32 30.2222 29.5949 26.5852 26.0972 24.8444C26.4345 25.637 26.6324 26.6 26.6764 27.7185C27.8204 27.9852 28.6783 29.0148 28.6783 30.2518C28.6783 31.6889 27.5197 32.8518 26.1045 32.8518C24.6819 32.8518 23.5307 31.6889 23.5307 30.2518C23.5307 29.0296 24.3666 28.0074 25.4885 27.7259C25.4372 26.6148 25.1806 24.9259 24.1027 24.0889C23.5527 23.9407 22.9881 23.837 22.4088 23.7852C22.3648 25.7333 16 30.5333 16 30.5333C16 30.5333 9.6352 25.7333 9.5912 23.7852C8.94592 23.8444 8.32264 23.9629 7.71402 24.1333C6.92942 24.7629 6.52612 25.9333 6.50412 27.6296C6.73144 27.7629 6.92209 27.9703 7.03208 28.2296C7.87534 28.6296 8.62328 29.4815 9.19523 30.6889C9.29056 30.8963 9.30523 31.1259 9.2319 31.3333C9.57654 32.2222 9.76719 33.2 9.76719 34.0148C9.76719 35.1629 9.76719 36.2444 8.52796 36.5259C8.39597 36.637 8.22731 36.7037 8.05133 36.7037H7.2374C6.81943 36.7037 6.48213 36.3629 6.48213 35.9407V35.8889C6.51146 35.4963 6.84143 35.1852 7.23006 35.1852H8.05866C8.14665 35.1852 8.22731 35.2 8.30797 35.2296C8.3593 35.2148 8.37397 35.2 8.37397 35.2C8.46929 35.037 8.46929 34.3481 8.46929 34.0222C8.46929 33.3555 8.30797 32.5555 8.01467 31.8074C7.86801 31.7185 7.74336 31.5926 7.67003 31.437C7.1714 30.3777 6.48946 29.6889 5.93217 29.6889C5.36755 29.6889 4.64895 30.4296 4.15032 31.5333C4.06966 31.7111 3.92301 31.8592 3.74702 31.9481C3.48304 32.6592 3.34372 33.4 3.34372 34.0222C3.34372 34.2963 3.34372 35.0296 3.44638 35.2074C3.44638 35.2074 3.46838 35.2222 3.53437 35.237C3.62236 35.2074 3.71036 35.1852 3.80568 35.1852H4.63428C5.01558 35.1852 5.33822 35.474 5.38222 35.8592L5.38955 35.8666V35.9185C5.38955 36.3703 5.05225 36.7111 4.64161 36.7111H3.80568C3.64436 36.7111 3.48304 36.6518 3.35105 36.5555C2.87443 36.4666 2.54445 36.2518 2.33181 35.9111C2.07516 35.4963 2.03116 34.9481 2.03116 34.0296C2.03116 33.2222 2.21448 32.2889 2.55179 31.3926C2.50046 31.2 2.51512 31 2.60312 30.8222C2.95509 30.0518 3.40238 29.3926 3.89368 28.9111ZM21.1476 35.2H26.6911C27.1311 35.2 27.483 35.5555 27.483 36C27.483 36.4444 27.1311 36.8 26.6911 36.8H21.1476C20.7076 36.8 20.3556 36.4444 20.3556 36C20.3556 35.5555 20.7076 35.2 21.1476 35.2Z" fill="#4CD080"></path><path d="M23.8533 11.7186C23.4867 11.7186 22.944 11.5927 22.3794 10.9853C21.9541 10.652 19.153 8.53345 16 8.53345C12.8689 8.53345 10.0384 10.6594 9.62048 10.9853C9.05586 11.5853 8.51324 11.7112 8.1466 11.7112C8.09528 11.7112 8.05128 11.7112 8.00728 11.7038C7.77997 11.6816 7.53799 11.6001 7.31801 11.4594C7.24468 11.926 7.20068 12.4001 7.20068 12.889C7.20068 17.8001 11.1457 25.1927 16.0073 25.1927C20.8689 25.1927 24.8139 17.8001 24.8139 12.889C24.8139 12.4001 24.7699 11.926 24.6966 11.4594C24.4766 11.6075 24.2273 11.689 24 11.7112C23.9486 11.7186 23.9046 11.7186 23.8533 11.7186Z" fill="#4CD080"></path><path d="M26.1044 31.4593C26.7605 31.4593 27.2923 30.9221 27.2923 30.2593C27.2923 29.5966 26.7605 29.0593 26.1044 29.0593C25.4483 29.0593 24.9165 29.5966 24.9165 30.2593C24.9165 30.9221 25.4483 31.4593 26.1044 31.4593Z" fill="#4CD080"></path><path d="M22.7313 1.34074C22.7313 1.34074 19.5123 0.17037 16.6085 0.0222222C16.4032 0.0148148 16.2052 0 15.9999 0C15.7946 0 15.5966 0.0148148 15.3913 0.0148148C12.4875 0.17037 9.26844 1.33333 9.26844 1.33333C8.39584 1.65185 7.68457 2.68148 7.68457 3.62222V9.65926C7.68457 10.2 7.85322 10.4889 8.10987 10.5111C8.12453 10.5111 8.13187 10.5111 8.14653 10.5111C8.32985 10.5111 8.55716 10.3852 8.80648 10.1037C8.80648 10.1037 12.1209 7.33333 15.9999 7.33333C19.8789 7.33333 23.1933 10.1037 23.1933 10.1037C23.4426 10.3852 23.6699 10.5111 23.8532 10.5111C23.8679 10.5111 23.8752 10.5111 23.8899 10.5111C24.1465 10.4889 24.3152 10.2 24.3152 9.65926V3.62963C24.3152 2.68889 23.6039 1.65185 22.7313 1.34074ZM18.0824 4.51111H16.8285V5.79259C16.8285 5.92593 16.7332 6.02963 16.6232 6.02963H15.3839C15.2666 6.02963 15.1786 5.92593 15.1786 5.79259V4.51111H13.9247C13.8001 4.51111 13.6974 4.41481 13.6974 4.2963V3.02963C13.6974 2.91111 13.8001 2.81481 13.9247 2.81481H15.1786V1.54074C15.1786 1.40741 15.2739 1.3037 15.3839 1.3037H16.6232C16.7405 1.3037 16.8285 1.40741 16.8285 1.54074V2.82222H18.0824C18.207 2.82222 18.3097 2.91852 18.3097 3.03704V4.2963C18.3097 4.41481 18.207 4.51111 18.0824 4.51111Z" fill="#4CD080"></path></svg>