<svg xmlns="http://www.w3.org/2000/svg" width="41" height="40" viewBox="0 0 41 40" fill="none"><path d="M32.2842 1.43471C31.2658 0.463917 29.9588 0 28.6433 0C27.1666 0 25.6644 0.592784 24.5526 1.71821L24.0774 2.19931L23.5936 1.71821C22.4819 0.592784 20.9797 0 19.503 0C18.1875 0 16.8805 0.463917 15.8621 1.43471C13.6216 3.57388 13.5791 7.14777 15.7433 9.33849L24.0774 17.7749L32.4115 9.33849C34.5671 7.14777 34.5247 3.57388 32.2842 1.43471Z" fill="#2AA7FF"></path><path d="M40.4653 22.0704C39.1838 21.1941 37.6732 21.4433 36.3407 22.2251C34.9998 22.9983 27.3277 29.6392 27.3277 29.6392H19.7744C19.4264 29.6392 19.0445 29.2354 19.0445 28.8831C19.0445 28.4708 19.401 28.1443 19.7744 28.1443H24.3912C26.0122 28.1443 27.8199 27.079 27.8199 25.1804C27.8199 23.1615 26.0122 22.2165 24.3912 22.2165C21.5821 22.2165 21.0389 22.2251 21.0389 22.2251C19.9187 22.2251 18.7729 22.1563 17.8988 21.6838C16.7276 21.0739 15.3782 20.7302 13.9354 20.7302C11.5167 20.7302 9.35252 21.7096 7.86732 23.2474L0 31.1082L8.7839 40L11.7119 37.0361H26.5299C28.0066 37.0361 29.4324 36.4862 30.5272 35.4983L40.5587 24.1065C41.1782 23.5481 41.1358 22.5343 40.4653 22.0704Z" fill="#2AA7FF"></path></svg>