<svg xmlns="http://www.w3.org/2000/svg" width="45" height="40" viewBox="0 0 45 40" fill="none"><g clip-path="url(#clip0_438_1423)"><path d="M29.3899 18.2178L28.4883 12.8053L32.2945 8.986C33.1635 8.11654 32.6662 6.63708 31.4301 6.45044L26.2344 5.67202L23.8921 0.792083C23.3855 -0.25947 21.6196 -0.25947 21.1177 0.792083L18.7754 5.67202L13.5797 6.45044C12.3389 6.63708 11.8463 8.11199 12.7153 8.986L16.5215 12.8053L15.6152 18.2178C15.4107 19.456 16.7585 20.3801 17.8692 19.7747L22.4979 17.2664L27.1266 19.7747C28.2374 20.3801 29.5944 19.4651 29.3899 18.2178Z" fill="#FFB200"></path><path d="M19.1517 26.4846L13.956 25.7062L11.6184 20.8263C11.1119 19.7747 9.34589 19.7747 8.84398 20.8263L6.50638 25.7062L1.30138 26.4846C0.0605458 26.6713 -0.43207 28.1462 0.436979 29.0202L4.24313 32.8395L3.34155 38.252C3.13707 39.4856 4.48015 40.4188 5.5955 39.8088L10.2242 37.3006L14.853 39.8088C15.959 40.4097 17.316 39.4993 17.1069 38.252L16.2053 32.8395L20.0115 29.0202C20.8852 28.1462 20.3926 26.6713 19.1517 26.4846Z" fill="#FFB200"></path><path d="M43.6986 26.4846L38.5029 25.7062L36.1653 20.8263C35.6587 19.7747 33.8928 19.7747 33.3909 20.8263L31.044 25.7062L25.8483 26.4846C24.6074 26.6713 24.1148 28.1462 24.9839 29.0202L28.79 32.8395L27.8884 38.252C27.6839 39.4902 29.027 40.4188 30.1424 39.8088L34.7711 37.3006L39.3998 39.8088C40.5059 40.4097 41.8629 39.4993 41.6538 38.252L40.7522 32.8395L44.5584 29.0202C45.4321 28.1462 44.9348 26.6713 43.6986 26.4846Z" fill="#FFB200"></path></g><defs><clipPath id="clip0_438_1423"><rect width="45" height="40" fill="white"></rect></clipPath></defs></svg>